<?xml version="1.0" encoding="utf-8"?>
<!-- Generator: Adobe Illustrator 26.0.1, SVG Export Plug-In . SVG Version: 6.00 Build 0)  -->
<svg version="1.1" id="Layer_1" xmlns="http://www.w3.org/2000/svg" xmlns:xlink="http://www.w3.org/1999/xlink" x="0px" y="0px"
	 viewBox="0 0 19.9 35" style="enable-background:new 0 0 19.9 35;" xml:space="preserve">
<style type="text/css">
	.st0{fill:#FFFFFF;}
</style>
<g>
	<path d="M1,17.5c0,8.1,8.3,10.8,13.4,13.4c1.8,1,3.7,2.2,4.8,3.6l0,0c0,0,0.3,0.5,0.7,0.5c0-5.2,0-29.9,0-35
		c-0.3,0-0.6,0.4-0.7,0.5c-1.1,1.5-2.9,2.9-4.9,3.6C9,6.2,1,9,1,17.5z"/>
	<path class="st0" d="M5.8,17.5c0,0.4,0.2,0.8,0.6,1l6.6,5.4c0.5,0.4,1.3,0.4,1.8-0.2s0.4-1.4-0.2-1.9l-5.3-4.3l5.3-4.3l0.1-0.1
		c0.6-0.6,0.6-1.4,0.1-2s-1.4-0.6-2-0.1l-6.5,5.4C6,16.7,5.9,17.1,5.8,17.5z"/>
</g>
</svg>
