<?xml version="1.0" encoding="utf-8"?>
<!-- Generator: Adobe Illustrator 26.0.1, SVG Export Plug-In . SVG Version: 6.00 Build 0)  -->
<svg version="1.1" id="Layer_1" xmlns="http://www.w3.org/2000/svg" xmlns:xlink="http://www.w3.org/1999/xlink" x="0px" y="0px"
	 viewBox="0 0 19.9 35" style="enable-background:new 0 0 19.9 35;" xml:space="preserve">
<style type="text/css">
	.st0{fill:#FFFFFF;}
</style>
<g>
	<path d="M5.6,4.1C3.6,3.4,1.8,2,0.7,0.5C0.6,0.4,0.3,0,0,0c0,5.1,0,29.8,0,35c0.4,0,0.7-0.5,0.7-0.5v0c1.1-1.4,3-2.6,4.8-3.6
		c5.1-2.6,13.4-5.3,13.4-13.4C18.9,9,10.9,6.2,5.6,4.1z"/>
	<path class="st0" d="M13.6,16.4l-6.5-5.4c-0.6-0.5-1.5-0.5-2,0.1c-0.5,0.6-0.5,1.4,0.1,2l0.1,0.1l5.3,4.3l-5.3,4.3
		c-0.6,0.5-0.7,1.3-0.2,1.9c0.5,0.6,1.3,0.6,1.8,0.2l6.6-5.4c0.4-0.2,0.6-0.6,0.6-1C14,17.1,13.9,16.7,13.6,16.4z"/>
</g>
</svg>
