<?xml version="1.0" encoding="utf-8"?>
<!-- Generator: Adobe Illustrator 26.0.1, SVG Export Plug-In . SVG Version: 6.00 Build 0)  -->
<svg version="1.1" id="Layer_1" xmlns="http://www.w3.org/2000/svg" xmlns:xlink="http://www.w3.org/1999/xlink" x="0px" y="0px"
	 viewBox="0 0 282.9 321.9" style="enable-background:new 0 0 282.9 321.9;" xml:space="preserve">
<style type="text/css">
	.st0{fill:#FF1028;}
</style>
<path class="st0" d="M35.8,321.8c-8,0.3-16.1-0.7-23.8-2.9c-3.2-0.8-6.2-2.3-8.8-4.3c-4.8-4.1-4.1-10.3,1.4-13.3c1-0.5,2-1,3-1.5
	c9.3-4.2,16.5-12,20-21.7c3.5-9.2,6-18.8,11.2-27.3c4.9-7.9,10.8-14.7,19.7-18.3c4.1-1.5,8.5-2.1,12.9-1.7c2.1,0.1,3.3-0.3,3.8-2.8
	c0.7-3.9,2.8-7.4,5.8-9.9c7.5-6.9,14.9-14,22.6-20.8c2.7-2.3,2.1-3.4,0-5.6c-24.1-24-48.1-48-72.1-72.1c-9.2-9.2-12.9-20.2-9-32.8
	C30,63.4,59,50.8,79.6,71.3c24.6,24.4,49.1,49,73.6,73.6c2.5,2.5,3.9,3.1,6.9,0.3c24.4-22.8,49-45.3,73.5-67.9
	c3.6-3.3,7.1-6.6,10.7-9.9c9.4-8.5,22.4-8.4,31.3,0.4c9.2,9.1,9.9,21.5,1.3,31.2c-8.7,9.8-17.8,19.4-26.7,29
	c-40.2,43.6-80.4,87.2-120.6,130.8c-4.6,5-9.2,9.8-16.6,10.3c-1,0-1.8,0.8-1.8,1.9c0,0.1,0,0.3,0.1,0.4c1.4,13.9-5.9,23.3-16.1,31.2
	c-13.5,10.5-29,16.3-45.9,18.4C44.8,321.7,40.3,321.9,35.8,321.8z M90.8,233c0,0.5,0.1,1,0.3,1.5c4,8.4,10.1,14.8,18.9,18.4
	c2,0.8,3.5,0.2,4.9-1.3c4.2-4.6,8.5-9.1,12.7-13.7l93.6-101.5c14.4-15.7,28.9-31.4,43.3-47c3.4-3.7,3.4-7.2,0.1-10.3s-6.6-3-10,0.2
	c-22.6,20.7-45.1,41.6-67.7,62.4c-17.8,16.4-35.6,32.9-53.5,49.3c-13.3,12.3-26.7,24.6-40,36.9C92.2,229.1,90.5,230.2,90.8,233z
	 M144.6,158.7c-0.4-0.4-0.8-1-1.3-1.5c-16.2-16.2-32.4-32.4-48.6-48.6c-1.6-1.6-2.7-1.5-4.2,0.1c-7.3,7.4-14.6,14.7-22,21.9
	c-1.6,1.5-1.7,2.5-0.1,4.1c15.8,15.7,31.5,31.5,47.2,47.3c1.8,1.8,2.8,1.5,4.4-0.1c7.6-7.1,15.2-14,22.8-21
	C143.7,160.3,144.5,159.9,144.6,158.7L144.6,158.7z M27.9,305.6c6.7,0.7,13.5,0.6,20.2-0.2c15.9-2.1,30-8,41.9-18.9
	c5.4-5,7.1-11.1,4.6-17.9c-3.4-9.5-9.5-16.6-18.9-20.7c-6.6-2.9-12.2-1.8-17.4,3.3c-5.4,5.3-8.7,12-11.2,19
	C42.7,283,38.7,296,27.9,305.6z M55.6,76.9c-5.3-0.3-9.5,2.7-13.4,6.8c-7.3,7.7-7.4,17.1,0.1,24.7c3.6,3.7,7.3,7.2,10.8,10.9
	c1.7,1.8,2.9,1.9,4.8,0.1c7.1-7.3,14.4-14.5,21.7-21.7c1.5-1.5,1.8-2.5,0.1-4.2c-4-3.8-7.7-7.8-11.7-11.6
	C64.7,78.5,60.2,76.7,55.6,76.9z"/>
<path class="st0" d="M278.6,308c0,6.6-7.2,12.2-13.2,10.1c-18.6-6.3-37.1-12.8-54.5-22c-4.4-2.3-8.5-5.3-12-8.9
	c-10.5-10.6-21.1-21.3-31.8-31.7c-2.4-2.4-2.5-4-0.2-6.2c1.6-1.6,3-3.5,4.5-5.2c2.9-3.4,3-3.4,6.1-0.4c8.2,8.2,16.4,16.3,24.5,24.6
	c2,2.1,3.2,2.4,5.5,0.1c6.9-7.2,14-14.2,21.2-21.2c1.9-1.8,1.8-3,0-4.7c-8.9-8.8-17.6-17.9-26.7-26.5c-2.9-2.8-3-4.7-0.2-7.3
	c1.5-1.5,2.8-3,4.1-4.7c2.9-3.5,2.9-3.5,6.1-0.4c8.1,8.1,15.6,16.9,24.4,24.1c15,12.3,23.6,28.5,30.3,46.1
	c3.7,9.8,7.3,19.6,10.9,29.5C278.2,304.8,278.6,306.4,278.6,308z M259.1,298c-0.8-2.3-1.6-4.3-2.4-6.4c-4.2-10.8-8.3-21.6-13.5-31.9
	c-1.1-2.2-2-3-4.2-0.8c-6.6,6.8-13.3,13.5-20.1,20.1c-1.8,1.8-1.8,2.9,0.6,4c4.4,2,8.8,4.3,13.2,6.1c7.8,3.2,15.6,6.1,23.5,9.2
	C257.2,298.7,258.4,299.6,259.1,298L259.1,298z"/>
<path class="st0" d="M218.5,45.1c-0.1,1.8-1.5,2.4-2.9,2.9c-5.1,1.7-10.1,3.5-15.2,5c-2.2,0.6-3.8,2.3-4.4,4.4
	c-1.6,5.1-3.3,10.2-5,15.2c-0.5,1.4-1,2.9-2.8,2.9c-2,0.1-2.6-1.5-3.1-3c-1.6-5-3.4-9.9-4.9-14.9c-0.6-2.4-2.5-4.2-4.9-4.8
	c-4.9-1.5-9.7-3.2-14.5-4.8c-1.5-0.5-3.2-0.9-3.2-2.9c0-2.2,1.8-2.7,3.4-3.2c4.6-1.6,9.1-3.3,13.8-4.6c3.2-0.9,4.8-2.7,5.7-5.8
	c1.3-4.7,3-9.2,4.6-13.9c0.5-1.5,1-3.2,3-3.1s2.5,1.7,3,3.2c1.6,4.8,3.4,9.6,4.8,14.5c0.8,2.6,2,4.1,4.7,4.9c5,1.4,10,3.2,14.9,4.9
	C217,42.5,218.5,43.1,218.5,45.1z"/>
<path class="st0" d="M280.9,18.2c-0.2,1-1,1.7-2,1.8c-8.2,1.2-13,5.8-14.1,14.1c-0.1,1.1-0.7,2.2-2.1,2.1c-1-0.1-1.8-1-1.8-2
	c-1.2-8.4-6.1-13-14.4-14.3c-1,0-1.9-0.9-1.9-1.9c0-1,0.9-1.9,1.9-1.9c8.4-1.2,13.1-6,14.3-14.3c0.1-1,1-1.8,2-1.8
	c1,0.1,1.5,0.8,1.8,1.6c0.7,1.5,1.3,3.2,1.6,4.8c0.7,4.7,3.4,7.2,8,8c1.7,0.4,3.3,0.9,4.8,1.6C280,16.5,280.9,17,280.9,18.2z"/>
</svg>
