<?xml version="1.0" encoding="utf-8"?>
<!-- Generator: Adobe Illustrator 26.0.1, SVG Export Plug-In . SVG Version: 6.00 Build 0)  -->
<svg version="1.1" id="Layer_1" xmlns="http://www.w3.org/2000/svg" xmlns:xlink="http://www.w3.org/1999/xlink" x="0px" y="0px"
	 viewBox="0 0 466.7 466.7" style="enable-background:new 0 0 466.7 466.7;" xml:space="preserve">
<style type="text/css">
	.st0{fill:#FF1028;}
</style>
<path class="st0" d="M143,46.5c-21.7,0-43.3,0-65,0c-3.5,0-4.8,1.5-4.6,4.8s0.1,7,0,10.5c-0.4,7.5-4.1,11.6-11.5,11.6
	c-17,0.2-34,0.2-51,0C3.5,73.4,0.1,69.5,0.1,62C0,45,0,28,0.1,11c0-7.6,3.4-11,11-11c17-0.1,34-0.1,51,0c7.2,0,10.7,3.2,11.3,10.5
	c0.3,3.8,0.3,7.7,0.1,11.5c-0.2,3.6,1.2,5.1,4.9,5c9.2-0.2,18.3-0.1,27.5-0.1c28,0,56-0.1,84,0.1c5,0,7-1.3,6.6-6.4
	c-0.3-4-0.2-8,0.4-12c0.9-5.7,4.2-8.6,9.9-8.6c17.8-0.1,35.7-0.1,53.5,0c5.7,0,9,2.9,9.8,8.7c0.5,4,0.7,8,0.4,12
	c-0.3,4.7,1.2,6.4,6.1,6.4c36.8-0.2,73.7-0.2,110.5,0c5.2,0,6.8-1.7,6.3-6.6c-0.3-3.3-0.3-6.7,0.1-10C394,3.2,397.5,0,404.8,0
	c17-0.1,34-0.1,51,0c7.6,0,10.9,3.4,10.9,11.1c0.1,17,0.1,34,0,51c0,7.4-3.5,11.2-11,11.3c-17,0.2-34,0.2-51,0
	c-7.2-0.1-11-4-11.4-11.2c-0.2-3.7-0.2-7.3-0.1-11c0.1-3.4-1.2-4.7-4.7-4.7c-21.7,0.1-43.3,0-66.3,0c3.5,2,6,3.4,8.5,4.8
	c42.8,23.2,73.6,57.4,92.9,101.8c9.1,21,14,43,15.7,65.8c0.3,4.2,1.9,5.4,5.8,5.2c4.2-0.2,8.3-0.2,12.5,0c5.4,0.3,8.9,3.5,8.9,8.9
	c0.2,18.3,0.1,36.6,0,55c0,4.8-2.8,7.7-7.4,8.9c-1.3,0.4-2.6,0.6-3.9,0.7c-16.8,0-33.7,0.2-50.5,0c-7.4-0.1-11.4-4.1-11.5-11.7
	c-0.2-16.8-0.2-33.7,0-50.5c0.1-8.1,3.8-11.2,12-11.3c3.8,0,7.7,0,11.5,0c2.3,0,3.2-1,3-3.4c-2.7-36.9-15.1-70.2-37.4-99.6
	c-26.8-35.4-61.9-58.6-105-69.4c-6.6-1.7-6.9-1.4-7,5.2c0,1.8,0.1,3.7-0.1,5.5c-0.5,6.9-4.1,11-11,11.1c-17.3,0.3-34.7,0.3-52,0
	c-6.9-0.1-10.5-4.2-11-11.2c-0.1-1,0-2-0.1-3c-0.1-9.4-0.1-9.7-9-7.2C124.4,69.7,81.3,109,57.7,170c-6.2,16.2-9.3,32.9-10.8,50.1
	c-0.2,3,0.8,3.9,3.6,3.9c4.3-0.1,8.7-0.1,13,0c5.4,0.2,8.2,2.6,9.4,7.9c0.4,2,0.6,3.9,0.6,5.9c0.1,15.2,0.1,30.3,0,45.5
	c0,10.5-3.6,14.1-14.2,14.2c-15.2,0-30.3,0-45.5,0C3.3,297.4,0,294.1,0,283.8c0-15.8,0-31.7,0-47.5c0-9.5,2.8-12.3,12.1-12.4
	c3.3,0,6.7-0.2,10,0c3.6,0.2,4.9-1.1,5.2-4.8c1.7-20.1,5.6-39.8,12.9-58.8C55.3,121,80,89.1,114.4,64.6
	C123.5,58,133.3,52.4,143,46.5z M53.5,36.5L53.5,36.5c0-4.3-0.1-8.7,0-13c0.1-2.9-0.6-4.3-3.8-4.3c-8.7,0.1-17.3,0.1-25.9,0
	c-3.2,0-4.4,1.5-4.4,4.6c0.1,8.7,0.1,17.3,0,25.9c0,3,1.3,4.2,4.2,4.2c8.8-0.1,17.6-0.1,26.4,0c2.9,0,3.7-1.3,3.6-4
	C53.4,45.5,53.5,41,53.5,36.5z M413.3,36.8L413.3,36.8c0,4.3,0.2,8.7,0,13c-0.1,2.9,0.6,4.3,3.8,4.3c8.8-0.1,17.6-0.1,26.4,0
	c2.7,0,4-1.2,4-3.9c0-8.8,0-17.6,0-26.4c0-2.8-1.1-4.3-4.1-4.3c-8.8,0-17.6,0.1-26.4,0c-2.9,0-3.7,1.3-3.6,4
	C413.4,27.8,413.3,32.3,413.3,36.8z M216.4,36.1c0,4.5,0,9,0,13.5c0,2.8,1.2,4.4,4.1,4.4c8.7,0,17.3,0,26,0c2.7,0,3.9-1.4,3.9-4
	c0-8.8,0-17.7,0-26.5c0-3-1.6-4.1-4.4-4.1c-8.5,0-17,0-25.5,0c-2.9,0-4.2,1.4-4.2,4.3C216.4,27.8,216.4,32,216.4,36.1z M53.5,261.4
	L53.5,261.4c0-4.3-0.1-8.7,0-13c0.1-3.8-1.4-5.6-5.2-5.6c-8.3,0-16.7,0-25,0c-2.7,0-3.9,1.2-3.9,3.9c0,8.8,0,17.6,0,26.5
	c0,2.9,1.3,4.3,4.2,4.3c8.8,0,17.6,0,26.5,0c2.5,0,3.6-1,3.5-3.6C53.4,269.7,53.5,265.5,53.5,261.4z M413.4,260.5L413.4,260.5
	c-0.1,4.5,0,9-0.1,13.5c0,2.3,0.7,3.4,3.1,3.4c9,0,18,0,27,0c2.6,0,4-1.2,4-3.9c0-9,0-18,0-27c0-2.4-1-3.8-3.6-3.7
	c-8.6,0-17.3,0-26,0.1c-3,0-4.6,1.5-4.5,4.6C413.4,251.8,413.4,256.2,413.4,260.5z"/>
<path class="st0" d="M242.8,144.4c0,19.6,0,39.3-0.1,59c0,3.1,1.7,4.2,4.1,5.4c15.1,7.8,21.4,23.1,16.2,38.7
	c-4.4,13.1-17,21.6-31.2,21.2c-13.2-0.4-25.1-10.2-28.9-23.7c-3.6-12.9,1.8-27.7,13.7-34.1c6.2-3.3,7.6-7.2,7.5-13.7
	c-0.4-17.6-0.1-35.3-1-53.2c-4.4,8-8.9,16-13.4,24.1c-1.9,3.4-3.6,6.8-5.7,10c-3.4,5.1-8.8,6.6-13.4,3.8s-6.1-8.3-3.2-13.6
	c12.2-22.4,24.4-44.7,37-66.9c4.8-8.5,13.4-8,18.3,0.8c13,23.5,25.9,47,38.9,70.5s25.9,47,38.9,70.4c0.8,1.5,1.6,2.9,2.4,4.4
	c4.3,8.3,3.9,11.3-2.6,17.7c-15.2,14.8-26.6,33.2-33,53.5c-0.6,1.9-1,3.9-1.7,5.7c-1.5,3.9,0,5.1,3.8,4.9c9-0.4,16.9,2.4,22.9,9.1
	c11.4,12.5,9.9,30.6-3.6,41c-3.2,2.5-4.1,5.1-4.1,8.8c0.1,21.7,0.1,43.3,0,65c0.1,1.7,0,3.3-0.1,5c-0.5,4.7-3.2,7.6-7.9,8.5
	c-4.5,0.8-8.9-1.7-10.5-6c-1-2.5-1-5.2-1-7.9c0-20.7-0.1-41.3,0.1-62c0-4.5-1.3-6.1-6-6c-30.8,0.2-61.7,0.2-92.5,0
	c-4.4,0-5.8,1.4-5.7,5.8c0.2,20.3,0.1,40.6,0.1,61c0,1.7,0.1,3.3-0.1,5c-0.5,6.4-4.4,10.3-10,10.2s-9.2-4.1-9.2-10.8
	c-0.1-22.5-0.1-45,0-67.5c0-4-0.9-6.7-4.3-9.3c-9.5-7-13.3-19.2-9.6-30.4c3.7-11.5,14.3-19.3,26.3-19.6c0.8-0.1,1.7-0.1,2.5,0
	c4.1,0.4,5.4-0.9,4.1-5.1c-3.1-9.9-6.6-19.6-11.6-28.7c-6.2-11.1-13.9-21.2-22.9-30.1c-6.8-6.7-7.2-9.5-2.7-18
	c3.6-6.8,7.3-13.5,11.2-20.1c3.4-5.9,8.8-7.7,13.8-4.9c4.9,2.7,6.1,7.9,3.1,13.9c-2.5,4.9-5.1,9.7-7.9,14.5c-1.4,2.3-1,3.8,0.8,5.7
	c18.2,19.3,30.8,43.1,36.4,69c0.6,2.8,2,3.9,4.8,3.9c18.2-0.1,36.3-0.1,54.5,0c2.8,0,4.1-1.1,4.8-3.9c5.6-25.9,18.3-49.8,36.5-69
	c2-2.2,1.7-3.8,0.4-6.1c-17.5-31.6-35-63.3-52.4-95c-2.1-3.8-4.1-7.5-6.1-11.3L242.8,144.4z M233.1,365.5c17.8,0,35.6,0,53.4,0
	c2.2,0,4.3,0,6.5-0.2c4.2-0.5,6.7-2.9,7.1-7.1c0.4-4.4-1.6-7.4-5.8-8.7c-1.9-0.5-3.9-0.8-5.9-0.7c-36.6,0-73.2,0-109.9,0
	c-2.5,0-5,0-7.3,1.2c-3.3,1.5-5.2,5.1-4.4,8.7c0.3,3.5,3,6.2,6.5,6.6c2,0.3,4,0.4,6,0.3C197.1,365.5,215.1,365.5,233.1,365.5
	L233.1,365.5z M233.4,225.4c-7.1,0-11.9,4.8-11.9,11.8c0,6.6,5.3,11.9,11.8,11.9c6.6,0,11.9-5.3,11.9-11.8
	C245.3,230.2,240.5,225.4,233.4,225.4z"/>
<path class="st0" d="M179.1,212.1c-5.2-0.2-9.3-4.5-9.3-9.8c0-5.1,4.2-9.2,9.3-9.2c0.1,0,0.3,0,0.4,0c5.2,0,9.4,4.3,9.3,9.5
	c0,0.1,0,0.1,0,0.2C188.6,208,184.3,212.1,179.1,212.1z"/>
</svg>
