<?xml version="1.0" encoding="utf-8"?>
<!-- Generator: Adobe Illustrator 26.0.1, SVG Export Plug-In . SVG Version: 6.00 Build 0)  -->
<svg version="1.1" id="Layer_1" xmlns="http://www.w3.org/2000/svg" xmlns:xlink="http://www.w3.org/1999/xlink" x="0px" y="0px"
	 viewBox="0 0 286.2 285.2" style="enable-background:new 0 0 286.2 285.2;" xml:space="preserve">
<style type="text/css">
	.st0{fill:#FF1028;}
</style>
<path class="st0" d="M221.5,285c-12.6,0-25.3-0.4-37.9,0.1c-13.7,0.6-25.3-10.1-25.9-23.8c0-0.5,0-0.9,0-1.4
	c-0.2-25.8-0.2-51.6,0-77.4c0.2-14.8,11-25,26.1-25.1c24.7-0.1,49.5,0,74.2,0c17,0,27.4,9.1,27.6,26.1c0.4,26.4,0.9,52.8-0.3,79.2
	c-0.5,12.3-11.1,22-23.5,22.2L221.5,285L221.5,285z M272.9,232.9c0.1-0.4,0.2-0.9,0.3-1.3c0-16.7,0.1-33.4,0-50.1
	c-0.1-6.9-5.2-11.6-12.6-11.6c-25.9-0.1-51.7-0.1-77.6,0c-6.8,0-11.9,4.1-12.4,10.6c-1.2,18.1-0.2,36.3-0.1,54.7
	c4.5-3.9,8.6-8.1,12.7-12.2c5-5.1,7.7-5,12.9,0.1c4.9,4.8,9.8,9.6,14.5,14.6c2.2,2.3,3.5,2.6,5.9,0.1c7.6-7.9,15.5-15.6,23.3-23.3
	c5.6-5.6,8-5.5,13.7,0.1c5.4,5.4,10.8,10.8,16.2,16.1C270.5,231.5,271.2,232.7,272.9,232.9z M221.9,272.7L221.9,272.7h39.4
	c5.4,0,9.6-2.5,11-7.4c1.5-5.3,3.2-11.3-1.6-16.1c-7.1-7.3-14.5-14.4-21.6-21.7c-1.8-1.9-3-1.9-4.8,0c-8.2,8.4-16.5,16.6-24.9,24.9
	c-4.2,4.2-7.2,4.2-11.5,0c-5.4-5.4-10.8-10.7-16.1-16.1c-1.6-1.6-2.6-1.8-4.2-0.1c-5.1,5.3-10.4,10.4-15.6,15.6
	c-0.8,0.6-1.3,1.5-1.6,2.4c-1.1,8.6,0.9,18.9,13.8,18.6C196.7,272.6,209.2,272.7,221.9,272.7L221.9,272.7z"/>
<path class="st0" d="M222,0.2c12.9,0,25.8,0,38.6,0c14.4,0,25.1,10.1,25.3,24.5c0.3,26.1,0.3,52.1,0,78.2
	c-0.2,14.8-11,24.9-25.8,24.9c-25.5,0-51,0-76.5,0c-14.9,0-25.8-10.3-25.9-25.2c-0.2-25.7-0.2-51.4,0-77.1c0.1-17,14-26,26.1-25.5
	C196.5,0.6,209.2,0.2,222,0.2z M222.2,12.5c-12.4,0-24.8,0.3-37.1-0.1c-11.2-0.4-15.3,6.5-15.1,15c0.2,12.1,0,24.2,0,36.3
	c0,12.3,0,24.7,0,37c0.1,10,4.8,14.7,14.7,14.7c25,0,50,0,75,0c8.5,0,13.9-4.9,13.9-13.2c0.1-25.6,0.1-51.1,0-76.7
	c0-8.5-5-13-13.5-13C247.5,12.5,234.9,12.5,222.2,12.5z"/>
<path class="st0" d="M62.7,0.2c12,0,24,0.5,36-0.1c12.8-0.7,26.8,8.3,26.8,26.2c0.1,23.9,0.1,47.9,0,71.8
	c-0.1,14-7.2,23.3-19.5,26.3c-2,0.4-4,0.6-5.9,0.5c-24.9,0-49.7,0-74.6,0c-14.7,0-25.3-10.5-25.3-25.2c0-24.8,0-49.6,0-74.4
	c0-14.5,10.6-25,25.1-25C37.7,0.1,50.2,0.2,62.7,0.2z M112.7,62.8c0-12.5,0.1-24.9,0-37.4c-0.1-8.4-4.6-12.9-13.1-12.9
	c-24.6-0.1-49.2-0.1-73.8,0c-8.7,0-13.4,4.7-13.4,13.4c0,24.3,0,48.6,0,72.9c0,8.9,4.7,13.7,13.6,13.7c24.4,0,48.7,0,73.1,0
	c9.1,0,13.6-4.4,13.7-13.5C112.8,86.9,112.8,74.9,112.7,62.8z"/>
<path class="st0" d="M62.7,285c-12.6,0-25.2,0-37.9,0c-14,0-24.7-10.6-24.7-24.6C0,235.2,0,210,0.1,184.8
	c-0.1-13.4,10.7-24.4,24.1-24.5c0.2,0,0.3,0,0.5,0c24.5-0.1,49,0,73.5,0c16.7,0,27,9.4,27.3,26c0.4,24.4,0.3,48.9,0,73.3
	c-0.1,17.5-14.1,26.1-26.7,25.5C86.7,284.6,74.7,285,62.7,285z M62.5,172.7c-12.1,0-24.2,0-36.3,0c-8.9,0-13.7,4.7-13.7,13.6
	c0,24.3,0,48.6,0,72.9c0,8.9,4.7,13.5,13.6,13.6c24.4,0,48.7,0,73.1,0c9.1,0,13.6-4.4,13.6-13.5c0.1-24.3,0.1-48.6,0-72.9
	c0-9.1-4.5-13.6-13.5-13.6C87,172.6,74.7,172.7,62.5,172.7z"/>
<path class="st0" d="M203.2,63.7c0-6.9-0.1-13.7,0-20.6c0.1-5.9,4.5-8.8,9.6-5.9c12.3,6.9,24.6,13.9,36.7,21.1c5,3,4.9,8.4-0.1,11.4
	c-12,7-24,13.9-36,20.7c-5.8,3.3-10.1,0.6-10.1-6.1C203.2,77.4,203.2,70.5,203.2,63.7z M215.6,63.8c0,2.9,0,5.7,0,8.6
	c0,1.9,0.7,2.1,2.2,1.2c4.8-2.8,9.7-5.6,14.6-8.4c1.5-0.9,1.6-1.8,0-2.7c-4.8-2.7-9.5-5.5-14.2-8.2c-2.1-1.2-2.6-0.3-2.6,1.7
	C215.6,58.6,215.6,61.2,215.6,63.8z"/>
<path class="st0" d="M62.4,100.2c-9.2,0-18.5,0.1-27.7,0c-4.5,0-7.5-3.3-6.7-7.1c0.4-3.1,3.2-5.4,6.4-5.2c18.8-0.1,37.7-0.1,56.5,0
	c4.1,0,6.5,2.7,6.4,6.3c-0.1,3.6-2.6,5.9-6.7,5.9C81.2,100.2,71.8,100.2,62.4,100.2z"/>
<path class="st0" d="M62.8,58.6c9,0,18,0,26.9,0c5,0,7.6,2.2,7.6,6.2c-0.1,3.8-2.7,6.1-7.4,6.1c-18.1,0-36.2,0-54.3,0
	c-4.8,0-7.8-2.6-7.7-6.3c0.1-3.7,3-6,7.9-6C44.8,58.5,53.8,58.6,62.8,58.6z"/>
<path class="st0" d="M62.9,29.3c9,0,18,0,27,0c4.9,0,7.4,2.1,7.4,6s-2.5,6.3-7.3,6.3c-18.2,0.1-36.5,0.1-54.7,0
	c-4.4,0-7.4-2.9-7.4-6.4c0.1-3.5,2.9-5.9,7.6-5.9C44.6,29.3,53.7,29.3,62.9,29.3z"/>
<path class="st0" d="M73.1,202.8v8.5c0,10.5,0.1,20.9,0,31.4C73,255,65.9,263.4,54.3,265c-8.6,1.2-15.4-2.4-20.2-9.4
	c-4.7-7.1-4.6-16.3,0.4-23.2c5.1-7.1,12.2-10.1,20.9-8.8c5.5,0.9,5.5,1,5.5-4.6c0-10.3,0-20.7,0-31c0-3.1,0.5-5.8,3.6-7.1
	s5.7,0,8,2.4c6.3,6.4,12.7,12.7,19,19.1c3.4,3.5,3.9,7.1,1.3,9.8s-6.6,2.3-10.1-1.2c-2.8-2.8-5.4-5.8-8.1-8.7L73.1,202.8z M52,235.6
	c-4.8,0-8.6,3.9-8.6,8.7c0,4.8,3.9,8.6,8.7,8.6l0,0c4.8,0,8.6-3.9,8.6-8.7C60.6,239.4,56.7,235.6,52,235.6z"/>
</svg>
