<?xml version="1.0" encoding="utf-8"?>
<!-- Generator: Adobe Illustrator 26.0.1, SVG Export Plug-In . SVG Version: 6.00 Build 0)  -->
<svg version="1.1" id="Layer_1" xmlns="http://www.w3.org/2000/svg" xmlns:xlink="http://www.w3.org/1999/xlink" x="0px" y="0px"
	 viewBox="0 0 22.1 22.1" style="enable-background:new 0 0 22.1 22.1;" xml:space="preserve">
<path d="M10,14.2l-7.4,7.4c-0.6,0.6-1.5,0.6-2.1,0l0,0c-0.6-0.6-0.6-1.5,0-2.1l7.4-7.4c0.6-0.6,0.6-1.5,0-2.1L0.4,2.6
	C-0.1,2-0.1,1,0.4,0.4l0,0C1-0.1,2-0.1,2.6,0.4L10,7.9c0.6,0.6,1.5,0.6,2.1,0l7.4-7.4c0.6-0.6,1.5-0.6,2.1,0l0,0
	c0.6,0.6,0.6,1.5,0,2.1L14.2,10c-0.6,0.6-0.6,1.5,0,2.1l7.4,7.4c0.6,0.6,0.6,1.5,0,2.1l0,0c-0.6,0.6-1.5,0.6-2.1,0l-7.4-7.4
	C11.5,13.7,10.6,13.7,10,14.2z"/>
</svg>
