<?xml version="1.0" encoding="utf-8"?>
<!-- Generator: Adobe Illustrator 26.0.1, SVG Export Plug-In . SVG Version: 6.00 Build 0)  -->
<svg version="1.1" id="Layer_1" xmlns="http://www.w3.org/2000/svg" xmlns:xlink="http://www.w3.org/1999/xlink" x="0px" y="0px"
	 viewBox="0 0 347.7 383.6" style="enable-background:new 0 0 347.7 383.6;" xml:space="preserve">
<style type="text/css">
	.st0{fill:#FF1028;}
</style>
<path class="st0" d="M70.5,383.6c-2-1.7-3.9-3.5-4.4-6.3c-0.7-4.2,2.2-8.2,6.4-8.8c0.4-0.1,0.9-0.1,1.3-0.1c6.5-0.1,13-0.2,19.4,0
	c2.8,0.1,3.9-0.7,4-3.8c0.2-14.6,9.8-23.8,24.5-23.9c4.6,0,9.2-0.1,13.9,0c2.4,0.1,3.6-0.8,4.2-3.2c2.3-10.1,4.7-20.1,7.1-30.2
	c0.5-2.2-0.1-3.1-2.3-3c-1.1,0-2.2,0-3.4,0c-35.8,0-71.6,0-107.4,0C12.8,304.4,0,291.8,0,270.8c0-62.5,0-125,0-187.5
	c0-20.7,13-33.6,33.7-33.6c64.7,0,129.5,0,194.2,0.1c4.1,0,6.5-1.2,8.8-4.7c6.3-9.9,13-19.5,19.5-29.3c8.5-12.6,21.7-18.1,35.5-14.9
	c14.1,3.2,23.7,14,25.8,29.1c0.7,5.6-0.3,11.3-2.7,16.4c-0.9,2.2-1.3,3.2,1.8,3.4c19,1.1,31,13.8,31,32.8c0,63,0,126,0,189
	c0,20-13,32.9-33.1,32.9c-36.4,0-72.8,0-109.3,0c-5.3,0-5.2,0-4,5.2c2.2,9.1,4.5,18.2,6.4,27.3c0.7,3,2,4.1,5.1,3.9
	c4.9-0.2,9.7-0.1,14.6,0c13.1,0.2,23,10,23,23.1c0,3.7,1.2,4.7,4.7,4.5c5.4-0.3,10.7,0,16.1-0.1c4.3-0.1,8,0.5,9.9,5
	s-0.7,7.6-3.9,10.3L70.5,383.6z M173.7,288.5c46.8,0,93.6-0.2,140.4,0.1c11.6,0.1,18.4-7.1,17.7-17.9c-0.5-8.4-0.1-17-0.1-25.4
	c0-6,0-6-5.9-6H100.8c-2.2,0-4.5,0.1-6.7-0.7c-3.2-1.3-5.1-3.5-5.2-7.1s1.6-6.1,5-7.6c1.9-0.6,3.9-0.9,5.9-0.7h91.3
	c45.3,0,90.6,0,135.9,0c2.8,0,4.7-0.2,4.6-3.9c-0.1-46.3,0-92.6-0.1-138.9c0-8.8-6.1-14.7-14.9-14.8c-4.1,0-8.2,0.1-12.4,0
	c-2.4-0.2-4.6,0.9-6,2.8c-20.9,25.5-41.8,51-62.8,76.4c-2.2,2.7-3.1,5.1-2.2,8.7c5.7,24.8-11.2,47.9-37.5,46.9
	c-6.6-0.2-13.2-0.2-19.8-0.2c-7.3,0-14.4,2.7-19.8,7.5c-5.6,4.9-12,3-13.8-4.1c-3.7-14.4-5.9-29-4.1-44
	c2.9-24.3,21.8-42.1,46.3-42.8c2.5,0.1,4.8-1.1,6.1-3.3c9.7-14.7,19.5-29.3,29.2-44c0.7-1.1,2.4-2.2,1.5-3.5
	c-0.8-1.3-2.5-0.5-3.9-0.5c-61.6,0-123.3,0-184.9,0C21.5,65.7,16,71.2,16,82.5c0,25.2,0,50.4,0,75.6V218c0,5.3,0,5.3,5.4,5.3
	c5,0,10-0.1,15,0.1c5.7,0.2,9.2,4.6,8,9.8c-0.8,3.6-4.1,6-8.8,6.1c-5.3,0.1-10.7,0.1-16.1,0c-2.5-0.1-3.6,0.9-3.6,3.5
	c0.1,10.6,0,21.2,0.1,31.8c0.1,5.8,3.1,9.8,8.1,12.5c2.9,1.6,6,1.4,9.1,1.4L173.7,288.5z M301.7,33c0-7.5-4.8-14.1-11.9-16.4
	c-7.4-2.5-15.5,0.4-19.7,6.9c-14.1,20.9-28,41.8-42.1,62.7c-1.5,2.2-1.1,3.4,1,4.8c5.3,3.8,10.7,7.8,15.9,11.8
	c2.3,1.8,3.6,1.7,5.5-0.6c15.8-19.4,31.7-38.8,47.6-58.2C300.5,41,301.8,37.1,301.7,33L301.7,33z M186.1,184.4c5.1,0,9.3,0.1,13.6,0
	c7.2-0.2,12.5-3.7,16.1-9.8c3.5-5.8,3.3-12.1,2-18.5c-0.4-2.3-1.7-4.4-3.7-5.8c-6.2-4.4-12.5-8.7-18.3-13.6
	c-3.9-3.6-9.3-4.9-14.4-3.6c-10.3,2.1-18.9,6.5-23.6,16.3c-5.8,12.1-4.8,24.9-2.8,37.7c0.2,1.3,0.7,2.1,2.2,1.4
	C166.8,184.2,176.9,184,186.1,184.4z M173.4,368.4h58.3c1.6,0,2.9,0,3.2-2.2c0.6-5.1-2.7-9.3-7.8-9.3c-35.5-0.1-71.1-0.1-106.6,0
	c-4.4,0-6.9,2.3-7.6,6.7c-0.7,4.1-0.1,4.9,4,4.9H173.4z M173.7,340.8c5.1,0,10.2-0.1,15.3,0c2.6,0.1,3.2-0.8,2.6-3.3
	c-2.5-10-4.9-20-7.2-30.2c-0.5-2-1.4-2.9-3.5-2.9c-4.6,0.1-9.2,0.1-13.8,0c-2.3,0-3.4,0.8-3.9,3c-2.3,10.1-4.7,20.1-7.2,30.2
	c-0.7,2.8,0.4,3.2,2.8,3.2C163.7,340.8,168.7,340.8,173.7,340.8L173.7,340.8z M218.1,102.9c-1.3-0.2-1.7,0.7-2.2,1.4
	c-3.6,5.4-7.2,10.8-10.9,16.1c-1.4,2-0.5,3.1,1.1,4.3c4.4,3.2,8.9,6.5,13.2,9.8c2,1.5,3.2,1.6,4.9-0.6c3.8-4.9,7.8-9.8,11.9-14.5
	c1.6-1.9,1.2-2.7-0.6-4c-5.2-3.7-10.2-7.5-15.4-11.3C219.5,103.7,218.7,103.3,218.1,102.9L218.1,102.9z"/>
<path class="st0" d="M74.5,231.1c0.1,4.3-3.3,7.9-7.7,8c0,0,0,0,0,0c-4.3-0.1-7.8-3.7-7.8-8c0-4.3,3.5-7.7,7.7-7.7
	S74.5,226.9,74.5,231.1L74.5,231.1z"/>
</svg>
